PathFileType	4	(X/Y/Z)	C:/Users/beibeiliu/ov580/test_trc/capture2\sequence.21_training_dense_right.trc
DataRate	CameraRate	NumFrames	NumMarkers	Units	OrigDataRate	OrigDataStartFrame	OrigNumFrames
120	120	21	19	mm	120	267	355
Frame#	Time	ThumbCMC			ThumbMCP			ThumbIP			ThumbTip			IndexMCP			IndexPIP			IndexTip			MiddleMCP			MiddlePIP			MiddleTip			RingMCP			RingPIP			RingTip			PinkyMCP			PinkyPIP			PinkyTip			BackHand1			BackHand2			BackHand3	
		X0	Y0	Z0	X1	Y1	Z1	X2	Y2	Z2	X3	Y3	Z3	X4	Y4	Z4	X5	Y5	Z5	X6	Y6	Z6	X7	Y7	Z7	X8	Y8	Z8	X9	Y9	Z9	X10	Y10	Z10	X11	Y11	Z11	X12	Y12	Z12	X13	Y13	Z13	X14	Y14	Z14	X15	Y15	Z15	X16	Y16	Z16	X17	Y17	Z17	X18	Y18	Z18	
266	2.21667	136.699	41.7457	15.0543	134.451	25.6196	-11.8348	132.672	24.2702	-38.8467	132.026	21.5115	-66.0636	168.358	77.9649	-36.041	167.709	79.3646	-66.5806	175.382	77.2207	-88.314	177.704	51.0354	-46.2947	161.399	24.5596	-47.9154	152.982	24.1142	-13.0983	185.145	37.7385	-38.5791	172.707	11.6205	-29.6694	167.425	24.0595	3.06789	199.871	29.2213	-27.033	180.335	6.40897	-15.7922	173.257	25.3399	11.9295	203.089	56.5833	12.8277	195.477	46.8789	40.1254	169.863	63.1583	27.1916	
267	2.225	135.357	37.7927	18.8741	130.283	24.6917	-13.2505	127.264	21.8512	-40.1907	130.601	19.9988	-63.7442	155.574	78.8045	-39.0453	161.902	76.6522	-64.2592	167.983	75.8666	-93.3377	169.25	53.2605	-46.411	158.562	24.096	-47.5722	150.669	22.135	-13.1996	181.838	37.5431	-40.0273	163.895	14.577	-29.7918	161.131	26.7043	2.94431	194.987	29.8417	-28.0824	177.338	8.00514	-17.695	171.869	26.4028	11.9954	197.538	59.2984	9.54008	191.093	50.1556	40.7035	162.9	65.6493	23.3636	
268	2.23333	126.224	37.1263	19.4467	120.775	22.4736	-14.7219	120.64	19.7282	-37.8605	122.331	19.9571	-66.2223	152.348	78.5239	-42.63	149.343	77.6548	-68.0414	155.133	75.8177	-91.6808	164.553	52.6719	-46.282	151.015	26.3554	-49.7894	148.186	22.8945	-10.2659	174.254	38.7201	-41.3531	158.111	15.0799	-30.3956	155.082	25.5407	0.31611	190.636	29.4166	-29.7136	169.204	10.2207	-15.8939	167.872	25.5757	13.8629	188.997	60.2953	8.64148	185.798	47.1114	41.3729	154.131	63.781	27.8845	
269	2.24167	121.687	36.9755	17.2472	114.278	23.4041	-12.6277	110.874	19.4336	-39.3588	113.951	18.9354	-63.5304	137.221	78.7007	-40.1895	140.691	76.848	-68.1563	145.651	74.6495	-89.6587	152.296	56.0089	-44.4179	144.078	22.7912	-47.4166	140.417	22.7072	-9.68627	168.42	41.0484	-39.3231	152.176	15.2498	-32.8387	147.969	23.5806	-0.674708	182.555	28.9289	-30.952	163.245	10.909	-16.1958	162.238	26.6658	12.3099	180.26	62.5556	9.10033	176.481	52.0555	38.7306	145.554	65.4383	26.3313	
270	2.25	108.993	36.9784	18.3306	102.918	20.5178	-10.0653	103.817	18.2851	-35.1323	108.059	18.3673	-60.67	130.803	77.7486	-39.6356	130.94	75.7324	-67.3526	133.659	74.8793	-89.3808	142.481	55.4491	-45.4093	135.206	24.4712	-48.8372	127.358	23.6768	-9.89364	157.515	39.3464	-40.0267	141.337	15.074	-28.1164	141.058	27.3816	3.23235	173.982	31.4566	-30.9307	157.257	10.1693	-16.9052	151.954	27.9749	9.13044	170.847	60.0374	11.592	166.596	51.7501	42.3838	139.526	65.0617	29.5984	
271	2.25833	103.073	35.2647	20.3338	95.8583	19.6056	-10.2421	93.1724	16.3922	-36.3995	99.0036	18.5697	-61.1565	119.806	76.2995	-38.3602	118.635	75.2578	-64.9476	123.417	73.5999	-92.8543	135.382	54.865	-44.0335	127.877	23.9032	-48.5035	123.829	21.1665	-11.8187	150.368	41.2022	-38.6588	138.463	13.0193	-27.557	134.804	25.517	2.68413	164.24	33.0328	-30.4859	147.914	11.2533	-14.2808	144.24	27.4742	11.0944	163.147	64.3234	8.52662	164.116	48.2233	42.1614	131.105	65.9554	28.9704	
272	2.26667	97.6326	35.8622	18.6342	92.5519	20.974	-9.53667	89.9558	19.037	-36.8913	90.6954	16.8644	-58.1299	110.109	76.1757	-36.5173	112.111	74.5734	-63.7665	112.755	73.6876	-87.4407	130.642	52.6765	-45.8036	119.466	22.2602	-46.0106	116.326	23.936	-6.957	141.624	42.5311	-38.0264	130.512	11.9082	-26.5721	128.011	24.5217	2.0027	156.02	29.3727	-31.3986	141.552	10.5761	-13.302	141.875	29.583	13.0967	155.466	61.7504	9.05465	156.144	52.6046	40.3343	128.691	63.7642	28.3822	
273	2.275	90.0328	34.622	22.2535	86.6115	22.0163	-9.78946	79.3603	16.3881	-34.019	80.2286	17.6404	-59.6799	103.727	76.8049	-35.4676	101.144	75.535	-61.5477	105.138	71.7871	-87.2939	122.562	54.6153	-42.9487	111.008	21.9185	-43.9296	109.105	21.6219	-9.37833	134.615	38.9163	-38.9798	123.81	13.6512	-26.9306	119.683	27.9432	4.13313	151.501	31.8237	-30.3699	132.865	12.7757	-17.2067	132.607	26.9151	11.5824	146.841	63.147	13.2897	147.093	51.3473	38.3663	119.048	65.1359	25.621	
274	2.28333	84.4327	33.5078	25.0916	78.4654	20.1756	-4.72117	71.5823	18.6798	-37.1735	75.4306	18.8657	-58.2401	92.7525	77.366	-37.9707	93.5336	75.0295	-61.9883	91.6337	73.6037	-86.6256	109.756	53.2419	-44.2933	103.477	22.6259	-42.4756	99.3106	23.2907	-6.17044	126.205	38.4748	-40.3031	114.419	16.3284	-29.5937	115.125	26.8012	5.25456	144.867	33.6936	-29.8173	127.26	12.1998	-14.9362	128.575	28.8503	12.0833	139.036	65.5352	12.3477	143.452	51.3611	44.0646	111.965	63.7022	27.4485	
275	2.29167	77.6106	33.5908	23.9636	68.8175	19.1881	-7.21013	68.2351	19.5398	-33.3071	65.6204	18.5306	-56.8472	87.3514	76.3186	-32.7591	82.7643	75.2184	-61.4399	83.0599	72.2034	-88.8945	105.798	54.4757	-41.5936	95.7312	23.6247	-41.2627	95.2532	22.8355	-7.29452	121.175	43.809	-36.203	110.868	15.0205	-26.4638	106.226	25.3417	3.57617	133.832	32.9662	-30.3516	117.818	15.8905	-14.466	119.017	29.8138	13.0717	134.41	64.8109	9.26287	132.312	53.5332	43.3588	104.732	62.711	30.2591	
276	2.3	72.1062	32.2513	27.8889	62.7011	17.9448	-3.81068	56.8478	15.9154	-30.9223	57.4092	17.4178	-55.5114	78.5815	76.8443	-30.83	77.934	74.237	-58.2751	74.7358	71.7635	-87.0015	95.0143	57.2634	-37.9436	89.6886	23.7231	-40.2704	90.7365	22.2192	-6.16156	109.875	41.6015	-37.616	100.651	16.0154	-24.0008	101.197	25.0237	4.61504	124.079	37.075	-28.9922	110.706	16.9361	-13.4173	112.627	31.3021	15.0766	124.716	65.8972	10.6023	129.495	51.4832	43.9595	98.0313	64.0558	30.123	
277	2.30833	68.3934	35.4209	24.0199	61.2578	21.6525	-4.02045	53.6266	18.4937	-31.8899	54.6739	17.7232	-50.5051	73.1866	77.4577	-32.9871	68.0311	75.0442	-56.8823	71.3687	71.3774	-86.7736	91.0644	57.697	-38.4226	83.9651	26.8962	-41.957	86.1994	26.3611	-1.69598	103.118	43.5663	-36.1879	98.1372	17.0397	-26.2697	93.5074	29.9277	7.29539	121.664	38.0688	-27.4028	108.784	15.4734	-10.912	106.639	34.8038	13.407	121	67.011	12.2171	122.827	54.6998	45.465	88.7429	66.8736	32.832	
278	2.31667	61.5736	36.1157	25.7814	57.5286	24.2685	-4.90395	49.9509	21.0311	-30.7903	49.1609	21.9768	-54.157	66.676	79.9956	-31.5765	64.3473	76.6902	-58.3879	67.4214	73.0521	-81.3667	88.4523	58.286	-38.9537	78.4819	29.7678	-42.454	78.3982	25.4347	-4.82792	98.6022	45.9109	-36.0022	92.3184	19.3776	-25.2554	92.8954	30.3936	6.48106	118.31	41.1	-27.7612	106.947	16.2184	-14.2261	104.619	35.7031	16.6189	116.896	68.6661	12.4186	122.289	56.4352	45.6799	85.0255	67.9676	33.0639	
279	2.325	60.8763	38.3188	27.8453	54.2596	25.062	-2.81766	45.5482	23.1673	-28.5866	46.6422	25.5654	-50.2218	67.9366	81.6637	-31.7736	63.8857	78.3826	-58.6346	60.8675	76.9527	-80.3671	85.0974	62.4585	-37.736	77.3653	30.4294	-40.3579	76.9208	27.6056	-5.78653	97.091	50.3649	-35.3451	90.1761	22.0958	-25.4282	91.3049	30.3825	6.21415	118.119	42.3046	-28.2373	104.75	19.5772	-14.0901	100.232	36.2658	15.6704	117.818	70.3813	16.4954	116.018	60.4231	44.7433	85.3918	71.3149	34.5704	
280	2.33333	59.5731	39.7491	28.6737	55.4049	28.603	-1.64788	48.8142	29.9976	-32.2867	45.4649	30.3161	-54.3068	68.1922	84.5107	-30.5681	61.4693	82.6182	-59.4913	60.1201	78.1352	-83.753	83.0631	64.6579	-41.319	78.4204	36.2476	-42.1517	77.4079	33.822	-3.1019	94.7466	52.6803	-35.7075	87.8137	27.2093	-27.3874	91.7748	35.9808	7.5355	115.236	49.2508	-27.8299	102.772	23.081	-13.8867	99.309	40.9231	14.2405	113.51	76.0746	12.965	116.761	62.9196	43.6435	82.7737	73.5886	31.6858	
281	2.34167	60.3949	45.6855	26.6977	55.1617	34.0775	-5.82303	50.5283	35.2286	-32.0449	45.6171	34.7731	-54.5812	67.3573	88.8579	-29.7506	60.3948	86.6317	-57.18	63.5179	82.7321	-80.9569	84.3762	71.6772	-38.8409	72.8945	39.1594	-40.5894	78.22	37.7599	-4.61177	100.278	58.9957	-33.9571	88.0213	30.6706	-25.1112	88.9895	43.3165	6.87553	114.383	52.7775	-28.0892	101.597	28.6337	-15.7106	103.007	44.5697	16.6054	113.183	78.1001	13.3987	115.146	65.8839	43.1895	82.6654	77.5765	33.2052	
282	2.35	60.8395	49.9908	25.9733	54.0059	36.9078	-5.18264	50.0587	37.0844	-29.671	49.2431	39.5546	-53.0537	64.7384	93.4906	-32.9956	65.5448	90.6324	-57.5677	66.2347	86.4564	-83.2917	85.9535	73.7603	-41.1399	76.7252	43.2836	-40.0793	77.6604	43.5553	-3.51454	98.0748	60.2871	-36.5699	90.2935	35.4654	-24.6971	90.012	46.6488	6.15059	116.207	57.2493	-28.2849	102.008	32.4359	-13.1616	100.367	48.9706	14.9155	117.728	83.7525	14.5773	116.416	69.0969	45.8954	83.8124	83.3922	32.9629	
283	2.35833	64.5127	53.3852	25.5356	58.8412	42.2801	-7.20586	54.7284	42.3702	-31.9649	54.1758	46.0151	-54.8743	68.1649	97.9596	-29.4473	67.1943	94.3235	-60.2336	66.1036	91.8391	-84.6546	86.9233	80.3561	-37.7406	81.1113	48.7037	-41.0742	81.9027	46.9668	-4.56033	105.015	66.0026	-35.6706	94.0452	38.6749	-24.3546	95.4794	49.1505	6.25488	121.147	60.4185	-28.1295	108.487	35.4214	-14.5136	104.968	50.7383	12.5219	118.251	86.576	13.8778	122.632	72.672	44.2792	87.0332	85.833	34.2781	
284	2.36667	68.4406	57.0756	25.5816	60.5777	46.0562	-7.6348	55.0171	45.7709	-30.1508	53.2229	49.4292	-58.4137	69.6582	101.789	-29.1761	67.2651	100.033	-58.0908	67.0191	96.5523	-84.4414	88.9817	84.7912	-39.2202	81.7314	52.723	-41.9617	80.8594	51.6633	-4.7597	105.292	70.9755	-37.18	98.6476	44.0617	-27.4228	95.9892	55.661	6.74528	118.102	65.4173	-28.112	105.484	43.7577	-14.0503	106.472	55.8204	11.9168	121.974	90.9118	13.0456	122.919	77.7837	46.3332	92.4741	89.415	34.7064	
285	2.375	70.3549	63.4025	22.1386	66.0927	52.8187	-8.76005	58.1919	51.9448	-33.2215	58.4278	56.1239	-57.4895	71.8169	107.374	-30.9756	73.2401	104.562	-58.8024	71.0751	102.32	-83.8418	90.3325	92.3897	-38.0941	84.5056	59.75	-43.0971	85.9531	55.4201	-7.77752	108.576	76.1538	-37.1906	99.9456	50.3698	-30.0615	101.174	58.8031	5.84598	123.129	69.8275	-30.3551	109.498	48.213	-14.8545	109.408	58.6003	13.3054	119.785	98.5878	16.151	122.68	84.8613	41.662	90.4419	92.8574	35.1378	
286	2.38333	73.4799	67.5992	20.4078	67.1938	57.049	-10.8976	60.2512	56.6841	-36.1533	59.283	60.4591	-59.6019	77.6046	112.622	-31.7104	75.1387	110.828	-56.8919	75.117	108.303	-83.0257	96.0085	96.2281	-42.2162	92.4901	66.4198	-46.2928	86.251	62.3683	-7.99518	110.495	83.0366	-38.6675	101.484	55.8907	-27.8638	100.635	63.5768	2.02392	128.319	78.3433	-29.4987	114.551	53.9624	-17.9161	112.176	66.7634	14.2139	124.502	102.308	15.679	125.163	87.7968	44.0647	90.5398	99.5662	33.7801	
